<svg id="ejz2m7EVSI51" xmlns="http://www.w3.org/2000/svg" xmlns:xlink="http://www.w3.org/1999/xlink" viewBox="0 0 1920 1080" shape-rendering="geometricPrecision" text-rendering="geometricPrecision"><path d="M-65.38889,982.89731c24.69055,74.07165,142.25716,51.80338,190.97142,18.31233c50.29026-34.57455,74.57205-87.93969,122.9542-125.57024c46.95525-36.52075,98.60757-63.80664,154.34676-83.7135c63.9293-22.83189,122.81184-29.81187,190.97142-26.16047c131.63091,7.05166,271.90455,69.51694,374.09469-49.70489c32.03557-37.37483,42.59173-98.76198,36.62466-146.49862-14.63697-117.09575-171.12017-189.1061-256.37258-248.52444-51.5132-35.90314-137.31956-95.19663-177.89118-143.88257-15.80622-18.96746-23.28806-45.45434-41.85675-62.78512-56.5986-52.82536-146.61174-47.08884-217.13188-47.08884-79.09108,0-146.23537,3.99046-222.36398,28.77652-103.67346,33.75415-295.49311,106.2965-311.30957,232.82816v654.01168h156.96279Z" transform="translate(.000001 0)" fill="#161820" stroke-width="3.84"/><path d="" fill="#161820" stroke-width="3.84"/></svg>
