<svg id="eUSdozkMwTJ1" xmlns="http://www.w3.org/2000/svg" xmlns:xlink="http://www.w3.org/1999/xlink" viewBox="0 0 1920 1080" shape-rendering="geometricPrecision" text-rendering="geometricPrecision"><defs><linearGradient id="eUSdozkMwTJ2-fill" x1="0.586824" y1="0.007596" x2="0.413176" y2="0.992404" spreadMethod="pad" gradientUnits="objectBoundingBox" gradientTransform="translate(0 0)"><stop id="eUSdozkMwTJ2-fill-0" offset="0%" stop-color="#1c1c1c"/><stop id="eUSdozkMwTJ2-fill-1" offset="100%" stop-color="#191b26"/></linearGradient></defs><path d="M2042.39304,129.31652v-161.0704h-2179.05232c22.42518,67.27556,53.05099,135.88719,103.54525,186.38146C53.12919,240.8708,312.08138,312.52852,433.99011,297.28993c155.35431-19.41929,265.46003-139.7789,437.19107-85.13721c71.68641,22.80931,143.98717,62.41602,204.7895,105.84626c45.95891,32.82779,85.84461,75.23744,133.45833,105.84626c133.91782,86.09003,302.72852,137.29705,462.50213,124.2543c58.06389-4.73991,105.44985-18.03728,158.76939-39.1171c162.98687-64.43667,175.75991-87.96239,213.99352-260.01363c9.67109-43.51989,18.22396-78.60235-2.30101-119.65229Z" transform="translate(.000001 0)" fill="url(#eUSdozkMwTJ2-fill)" stroke-width="3.84"/></svg>
